<svg width="126" height="22" viewBox="0 0 126 22" fill="none" xmlns="http://www.w3.org/2000/svg">
<path d="M5.05816 0L13.1248 17.3283L21.1914 0H26.1173V22H21.7865V8.21687L15.4059 22H10.7114L4.33084 8.21687V22H0V0H5.05816Z" fill="#625757"/>
<path d="M34.5587 0V22H30.2278V0H34.5587Z" fill="#625757"/>
<path d="M57.1107 6.75904C57.1107 8.39357 56.6479 9.81827 55.7222 11.0331C54.7965 12.248 53.4521 13.0211 51.6889 13.3524L58.2678 22H52.879L46.4654 13.5512H42.9941V22H38.6633V0H49.5069C51.9974 0 53.8818 0.640562 55.1602 1.92169C56.4605 3.20281 57.1107 4.81526 57.1107 6.75904ZM42.9941 3.87651V9.6747H49.2094C50.3114 9.6747 51.182 9.40964 51.8211 8.87952C52.4603 8.3494 52.7798 7.64257 52.7798 6.75904C52.7798 5.8755 52.4603 5.17972 51.8211 4.67169C51.204 4.14157 50.3334 3.87651 49.2094 3.87651H42.9941Z" fill="#625757"/>
<path d="M79.0413 6.75904C79.0413 8.39357 78.5784 9.81827 77.6528 11.0331C76.7271 12.248 75.3826 13.0211 73.6194 13.3524L80.1984 22H74.8096L68.396 13.5512H64.9247V22H60.5939V0H71.4375C73.928 0 75.8124 0.640562 77.0907 1.92169C78.3911 3.20281 79.0413 4.81526 79.0413 6.75904ZM64.9247 3.87651V9.6747H71.14C72.242 9.6747 73.1125 9.40964 73.7517 8.87952C74.3909 8.3494 74.7104 7.64257 74.7104 6.75904C74.7104 5.8755 74.3909 5.17972 73.7517 4.67169C73.1346 4.14157 72.264 3.87651 71.14 3.87651H64.9247Z" fill="#625757"/>
<path d="M95.5831 0L105.137 22H100.542L98.3932 17.1295H88.376L86.2271 22H81.7971L91.3514 0H95.5831ZM93.4011 5.76506L90.0952 13.253H96.6741L93.4011 5.76506Z" fill="#625757"/>
<path d="M126 22H121.669V12.9217H111.024V22H106.693V0H111.024V9.04518H121.669V0H126V22Z" fill="#625757"/>
</svg>
